<mxfile host="app.diagrams.net" modified="2024-03-11T13:13:23.937Z" agent="Mozilla/5.0 (Windows NT 10.0; Win64; x64) AppleWebKit/537.36 (KHTML, like Gecko) Chrome/109.0.0.0 Safari/537.36" etag="8SkaaFdt2saUw9cPAl39" version="24.0.1" type="github">
  <diagram name="Page-1" id="Zqd-xZia8a0nJuBc5gRt">
    <mxGraphModel dx="608" dy="367" grid="1" gridSize="10" guides="1" tooltips="1" connect="1" arrows="1" fold="1" page="1" pageScale="1" pageWidth="850" pageHeight="1100" math="0" shadow="0">
      <root>
        <mxCell id="0" />
        <mxCell id="1" parent="0" />
        <mxCell id="-kSHPAaouFqrrIIP25GX-1" value="&amp;nbsp;1 dən 100dək olan ədədlərin cəmini tapan alqoritm qurun" style="text;html=1;align=center;verticalAlign=middle;whiteSpace=wrap;rounded=0;" vertex="1" parent="1">
          <mxGeometry x="390" y="80" width="170" height="30" as="geometry" />
        </mxCell>
        <mxCell id="-kSHPAaouFqrrIIP25GX-4" style="edgeStyle=orthogonalEdgeStyle;rounded=0;orthogonalLoop=1;jettySize=auto;html=1;entryX=0.5;entryY=0;entryDx=0;entryDy=0;" edge="1" parent="1" source="-kSHPAaouFqrrIIP25GX-2" target="-kSHPAaouFqrrIIP25GX-3">
          <mxGeometry relative="1" as="geometry" />
        </mxCell>
        <mxCell id="-kSHPAaouFqrrIIP25GX-2" value="start" style="ellipse;whiteSpace=wrap;html=1;" vertex="1" parent="1">
          <mxGeometry x="190" y="20" width="120" height="80" as="geometry" />
        </mxCell>
        <mxCell id="-kSHPAaouFqrrIIP25GX-6" style="edgeStyle=orthogonalEdgeStyle;rounded=0;orthogonalLoop=1;jettySize=auto;html=1;entryX=0.5;entryY=0;entryDx=0;entryDy=0;" edge="1" parent="1" source="-kSHPAaouFqrrIIP25GX-3" target="-kSHPAaouFqrrIIP25GX-5">
          <mxGeometry relative="1" as="geometry" />
        </mxCell>
        <mxCell id="-kSHPAaouFqrrIIP25GX-3" value="sum=0&lt;div&gt;count=1&lt;/div&gt;" style="shape=parallelogram;perimeter=parallelogramPerimeter;whiteSpace=wrap;html=1;fixedSize=1;" vertex="1" parent="1">
          <mxGeometry x="190" y="160" width="120" height="60" as="geometry" />
        </mxCell>
        <mxCell id="-kSHPAaouFqrrIIP25GX-8" value="" style="edgeStyle=orthogonalEdgeStyle;rounded=0;orthogonalLoop=1;jettySize=auto;html=1;" edge="1" parent="1" source="-kSHPAaouFqrrIIP25GX-5" target="-kSHPAaouFqrrIIP25GX-7">
          <mxGeometry relative="1" as="geometry" />
        </mxCell>
        <mxCell id="-kSHPAaouFqrrIIP25GX-13" value="true" style="edgeLabel;html=1;align=center;verticalAlign=middle;resizable=0;points=[];" vertex="1" connectable="0" parent="-kSHPAaouFqrrIIP25GX-8">
          <mxGeometry x="-0.3" y="-2" relative="1" as="geometry">
            <mxPoint as="offset" />
          </mxGeometry>
        </mxCell>
        <mxCell id="-kSHPAaouFqrrIIP25GX-10" style="edgeStyle=orthogonalEdgeStyle;rounded=0;orthogonalLoop=1;jettySize=auto;html=1;entryX=0;entryY=0.5;entryDx=0;entryDy=0;" edge="1" parent="1" source="-kSHPAaouFqrrIIP25GX-5" target="-kSHPAaouFqrrIIP25GX-9">
          <mxGeometry relative="1" as="geometry" />
        </mxCell>
        <mxCell id="-kSHPAaouFqrrIIP25GX-12" value="false" style="edgeLabel;html=1;align=center;verticalAlign=middle;resizable=0;points=[];" vertex="1" connectable="0" parent="-kSHPAaouFqrrIIP25GX-10">
          <mxGeometry x="-0.2255" y="-2" relative="1" as="geometry">
            <mxPoint as="offset" />
          </mxGeometry>
        </mxCell>
        <mxCell id="-kSHPAaouFqrrIIP25GX-5" value="count&amp;lt;100" style="rhombus;whiteSpace=wrap;html=1;" vertex="1" parent="1">
          <mxGeometry x="210" y="270" width="80" height="80" as="geometry" />
        </mxCell>
        <mxCell id="-kSHPAaouFqrrIIP25GX-11" style="edgeStyle=orthogonalEdgeStyle;rounded=0;orthogonalLoop=1;jettySize=auto;html=1;entryX=0;entryY=0.5;entryDx=0;entryDy=0;" edge="1" parent="1" source="-kSHPAaouFqrrIIP25GX-7" target="-kSHPAaouFqrrIIP25GX-5">
          <mxGeometry relative="1" as="geometry">
            <mxPoint x="110" y="310" as="targetPoint" />
            <Array as="points">
              <mxPoint x="170" y="410" />
              <mxPoint x="170" y="310" />
            </Array>
          </mxGeometry>
        </mxCell>
        <mxCell id="-kSHPAaouFqrrIIP25GX-7" value="sum=sum+count&lt;div&gt;count=count+1&lt;/div&gt;" style="rounded=0;whiteSpace=wrap;html=1;" vertex="1" parent="1">
          <mxGeometry x="190" y="390" width="120" height="60" as="geometry" />
        </mxCell>
        <mxCell id="-kSHPAaouFqrrIIP25GX-9" value="end" style="ellipse;whiteSpace=wrap;html=1;" vertex="1" parent="1">
          <mxGeometry x="400" y="270" width="120" height="80" as="geometry" />
        </mxCell>
      </root>
    </mxGraphModel>
  </diagram>
</mxfile>
